<svg xmlns="http://www.w3.org/2000/svg" fill="none" viewBox="0 0 243 122"><path fill="#fff" d="M242.715.283H.285v121.429h242.43V.283Z"/><path fill="#000" d="M242.43.571V121.43H.57V.571h241.86ZM243 0H0v122h243V0Z"/><path fill="#000" d="M6.482 6.503h230.036v108.993H6.482V6.503Zm75.148 9.51v90.367h11.393V70.536h13.932c20.193 0 30.07-12.995 30.07-28.195 0-14.515-9.877-26.327-30.07-26.327H81.63Zm25.228 10.248c13.346 0 18.923 6.375 18.923 16.08 0 10.345-5.577 17.947-18.923 17.947H93.023V26.261h13.835Zm35.447 80.17h11.392V16.014h-11.392v90.417Zm20.927-90.417v90.411h11.148V39.548l41.023 66.877h10.218V16.014h-11.147v66.975l-40.829-66.975h-10.413ZM37.19 62.888c12.81 4.364 27.38 5.637 27.38 19.22 0 10.934-7.871 16.183-18.625 16.183-14.23 0-19.07-13.092-20.728-17.993l-10.27 2.89c3.03 8.58 9.096 24.86 30.998 24.86 18.967 0 30.115-11.179 30.115-26.43 0-13.727-8.117-20.644-18.923-24.174-12.856-4.559-27.574-5.592-27.574-18.679 0-10.099 8.117-14.56 17.014-14.56 13.443 0 17.259 11.081 18.53 15.103l10.167-3.627c-2.347-7.895-9.143-21.232-28.703-21.232-17.31 0-28.554 10.641-28.554 24.956.005 13.68 9.148 20.495 19.173 23.483Z"/></svg>
